<?xml version="1.0" encoding="iso-8859-1"?>
<!-- Generator: Adobe Illustrator 23.0.3, SVG Export Plug-In . SVG Version: 6.00 Build 0)  -->
<svg version="1.1" id="Layer_1" xmlns="http://www.w3.org/2000/svg" xmlns:xlink="http://www.w3.org/1999/xlink" x="0px" y="0px"
	 viewBox="0 0 64 64" style="enable-background:new 0 0 64 64;" xml:space="preserve">
<g>
	<linearGradient id="SVGID_1_" gradientUnits="userSpaceOnUse" x1="27" y1="11.0426" x2="27" y2="14.6389">
		<stop  offset="0" style="stop-color:#6DC7FF"/>
		<stop  offset="1" style="stop-color:#E6ABFF"/>
	</linearGradient>
	<circle style="fill:url(#SVGID_1_);" cx="27" cy="13" r="2"/>
</g>
<g>
	<linearGradient id="SVGID_2_" gradientUnits="userSpaceOnUse" x1="37" y1="49.1277" x2="37" y2="52.8299">
		<stop  offset="0" style="stop-color:#6DC7FF"/>
		<stop  offset="1" style="stop-color:#E6ABFF"/>
	</linearGradient>
	<circle style="fill:url(#SVGID_2_);" cx="37" cy="51" r="2"/>
</g>
<linearGradient id="SVGID_3_" gradientUnits="userSpaceOnUse" x1="32" y1="6.6596" x2="32" y2="56.8735">
	<stop  offset="0" style="stop-color:#1A6DFF"/>
	<stop  offset="1" style="stop-color:#C822FF"/>
</linearGradient>
<path style="fill:url(#SVGID_3_);" d="M51,21h-7v-8c0-3.859-3.14-7-7-7H27c-3.86,0-7,3.141-7,7v8h-7c-3.86,0-7,3.141-7,7v8
	c0,3.859,3.14,7,7,7h7v8c0,3.859,3.14,7,7,7h10c3.86,0,7-3.141,7-7v-8h7c3.86,0,7-3.141,7-7v-8C58,24.141,54.86,21,51,21z M13,41
	c-2.757,0-5-2.243-5-5v-5h7v-2H8v-1c0-0.342,0.035-0.677,0.101-1H23v-2H9.026c0.914-1.207,2.348-2,3.974-2h16v-2h-7v-8
	c0-2.757,2.243-5,5-5h10c2.757,0,5,2.243,5,5v15c0,1.654-1.346,3-3,3h-5.489h-3.021H25c-2.757,0-5,2.243-5,5v5H13z M51,41H35v2h7v8
	c0,2.757-2.243,5-5,5H27c-2.757,0-5-2.243-5-5V36c0-1.654,1.346-3,3-3h5.489h3.021H39c2.757,0,5-2.243,5-5v-5h7c2.757,0,5,2.243,5,5
	v5h-7v2h7v1c0,0.342-0.035,0.677-0.101,1H41v2h13.974C54.061,40.207,52.627,41,51,41z"/>
</svg>